<?xml version="1.0" encoding="UTF-8" standalone="no"?>
<!-- Created with Inkscape (http://www.inkscape.org/) -->

<svg
   width="256"
   height="256"
   viewBox="0 0 67.733332 67.733333"
   version="1.1"
   id="svg1"
   inkscape:version="1.4 (e7c3feb100, 2024-10-09)"
   sodipodi:docname="logo.svg"
   xml:space="preserve"
   inkscape:export-filename="logo-512.png"
   inkscape:export-xdpi="192"
   inkscape:export-ydpi="192"
   xmlns:inkscape="http://www.inkscape.org/namespaces/inkscape"
   xmlns:sodipodi="http://sodipodi.sourceforge.net/DTD/sodipodi-0.dtd"
   xmlns:xlink="http://www.w3.org/1999/xlink"
   xmlns="http://www.w3.org/2000/svg"
   xmlns:svg="http://www.w3.org/2000/svg"><sodipodi:namedview
     id="namedview1"
     pagecolor="#505050"
     bordercolor="#eeeeee"
     borderopacity="1"
     inkscape:showpageshadow="0"
     inkscape:pageopacity="0"
     inkscape:pagecheckerboard="0"
     inkscape:deskcolor="#505050"
     inkscape:document-units="px"
     inkscape:zoom="0.5"
     inkscape:cx="274"
     inkscape:cy="-124"
     inkscape:window-width="2560"
     inkscape:window-height="1378"
     inkscape:window-x="0"
     inkscape:window-y="0"
     inkscape:window-maximized="1"
     inkscape:current-layer="layer3" /><defs
     id="defs1"><linearGradient
       id="linearGradient28"
       inkscape:collect="always"><stop
         style="stop-color:#ff5959;stop-opacity:1;"
         offset="0.43057862"
         id="stop28" /><stop
         style="stop-color:#ff5975;stop-opacity:1;"
         offset="0.6723159"
         id="stop30" /><stop
         style="stop-color:#ffa35f;stop-opacity:1;"
         offset="1"
         id="stop29" /></linearGradient><clipPath
       clipPathUnits="userSpaceOnUse"
       id="clipPath73"><g
         id="g85"
         transform="matrix(1.105482,0,0,1.105482,-93.644025,-3.572326)"><path
           id="path74"
           style="display:inline;fill:#9a9a9a;fill-opacity:1;stroke:none;stroke-width:1.58473;stroke-linecap:round"
           d="m 33.866637,6.0313925 -5.634798,5.6347985 c 1.878095,0.610532 3.756187,4.791753 5.634281,12.54342 v 0.0042 c 1.72e-4,-7.09e-4 3.45e-4,-0.0014 5.17e-4,-0.0021 1.72e-4,7.09e-4 3.45e-4,0.0014 5.17e-4,0.0021 v -0.0042 c 1.878094,-7.751667 3.756186,-11.932888 5.634281,-12.54342 z"
           sodipodi:nodetypes="ccccccccc" /><path
           id="path75"
           style="display:inline;fill:#9a9a9a;fill-opacity:1;stroke:none;stroke-width:1.58473;stroke-linecap:round"
           d="m 33.866639,61.701939 5.634798,-5.634798 C 37.623342,55.456609 35.74525,51.275388 33.867156,43.523721 v -0.0042 c -1.72e-4,7.09e-4 -3.45e-4,0.0014 -5.17e-4,0.0021 -1.72e-4,-7.09e-4 -3.45e-4,-0.0014 -5.17e-4,-0.0021 v 0.0042 c -1.878094,7.751667 -3.756186,11.932888 -5.634281,12.54342 z"
           sodipodi:nodetypes="ccccccccc" /><path
           id="path76"
           style="display:inline;fill:#9a9a9a;fill-opacity:1;stroke:none;stroke-width:1.58473;stroke-linecap:round"
           d="m 61.701911,33.866665 -5.634798,-5.634798 c -0.610532,1.878095 -4.791753,3.756187 -12.54342,5.634281 h -0.0042 c 7.09e-4,1.72e-4 0.0014,3.45e-4 0.0021,5.17e-4 -7.09e-4,1.72e-4 -0.0014,3.45e-4 -0.0021,5.17e-4 h 0.0042 c 7.751667,1.878094 11.932888,3.756186 12.54342,5.634281 z"
           sodipodi:nodetypes="ccccccccc" /><path
           id="path77"
           style="display:inline;fill:#9a9a9a;fill-opacity:1;stroke:none;stroke-width:1.58473;stroke-linecap:round"
           d="m 6.0313647,33.866667 5.6347983,5.634798 c 0.610532,-1.878095 4.791753,-3.756187 12.54342,-5.634281 h 0.0042 c -7.09e-4,-1.72e-4 -0.0014,-3.45e-4 -0.0021,-5.17e-4 7.09e-4,-1.72e-4 0.0014,-3.45e-4 0.0021,-5.17e-4 h -0.0042 C 16.457916,31.988056 12.276695,30.109964 11.666163,28.231869 Z"
           sodipodi:nodetypes="ccccccccc" /><path
           id="path78"
           style="display:inline;fill:#9a9a9a;fill-opacity:1;stroke:none;stroke-width:1.58473;stroke-linecap:round"
           d="m 57.972692,47.784302 -2.062479,-7.697278 c -1.467784,1.321212 -6.027874,0.857077 -13.680061,-1.392279 l -0.0036,-0.0021 c 5.28e-4,5.03e-4 0.001,9.99e-4 0.0016,0.0015 -7e-4,-2.06e-4 -0.0014,-4.02e-4 -0.0021,-6.03e-4 l 0.0036,0.0021 c 5.774093,5.502311 8.456091,9.219397 8.04578,11.151141 z"
           sodipodi:nodetypes="ccccccccc" /><path
           id="path79"
           style="display:inline;fill:#9a9a9a;fill-opacity:1;stroke:none;stroke-width:1.58473;stroke-linecap:round"
           d="m 9.7605837,19.94903 2.0624793,7.697278 c 1.467784,-1.321212 6.027873,-0.857077 13.680061,1.392279 l 0.0036,0.0021 c -5.28e-4,-5.03e-4 -10e-4,-9.99e-4 -0.0016,-0.0015 7e-4,2.06e-4 0.0014,4.02e-4 0.0021,6.03e-4 l -0.0036,-0.0021 C 19.729547,23.535381 17.04755,19.818295 17.457861,17.886551 Z"
           sodipodi:nodetypes="ccccccccc" /><path
           id="path80"
           style="display:inline;fill:#9a9a9a;fill-opacity:1;stroke:none;stroke-width:1.58473;stroke-linecap:round"
           d="m 47.784276,57.97272 2.062479,-7.697278 c -1.931744,0.410311 -5.64883,-2.271687 -11.15114,-8.04578 l -0.0021,-0.0036 c 2.06e-4,6.99e-4 3.66e-4,0.0014 6.36e-4,0.0021 -5.04e-4,-5.29e-4 -10e-4,-10e-4 -0.0015,-0.0016 l 0.0021,0.0036 c 2.249356,7.652188 2.713491,12.212278 1.392279,13.680061 z"
           sodipodi:nodetypes="ccccccccc" /><path
           id="path81"
           style="display:inline;fill:#9a9a9a;fill-opacity:1;stroke:none;stroke-width:1.58473;stroke-linecap:round"
           d="m 19.949001,9.7606127 -2.062479,7.6972783 c 1.931744,-0.410311 5.648829,2.271686 11.15114,8.045779 l 0.0021,0.0036 c -2.06e-4,-7e-4 -3.66e-4,-0.0014 -6.36e-4,-0.0021 5.04e-4,5.28e-4 0.001,0.001 0.0015,0.0016 l -0.0021,-0.0036 C 26.789201,17.850965 26.325067,13.290876 27.646278,11.823092 Z"
           sodipodi:nodetypes="ccccccccc" /><path
           id="path82"
           style="display:inline;fill:#9a9a9a;fill-opacity:1;stroke:none;stroke-width:1.58473;stroke-linecap:round"
           d="m 19.949002,57.972721 7.697278,-2.06248 C 26.325068,54.442457 26.789204,49.882367 29.03856,42.23018 l 0.0021,-0.0036 c -5.03e-4,5.28e-4 -10e-4,0.001 -0.0015,0.0016 2.06e-4,-7.01e-4 3.66e-4,-0.0014 6.36e-4,-0.0021 l -0.0021,0.0036 c -5.502311,5.774094 -9.219397,8.456091 -11.151141,8.04578 z"
           sodipodi:nodetypes="ccccccccc" /><path
           id="path83"
           style="display:inline;fill:#9a9a9a;fill-opacity:1;stroke:none;stroke-width:1.58473;stroke-linecap:round"
           d="m 47.784275,9.7606119 -7.697278,2.0624801 c 1.321211,1.467784 0.857076,6.027872 -1.392279,13.68006 l -0.0021,0.0036 c 5.03e-4,-5.29e-4 10e-4,-10e-4 0.0015,-0.0016 -2.06e-4,7e-4 -3.67e-4,0.0014 -6.36e-4,0.0021 l 0.0021,-0.0036 c 5.502341,-5.774075 9.219427,-8.456071 11.151171,-8.045761 z"
           sodipodi:nodetypes="ccccccccc" /><path
           id="path84"
           style="display:inline;fill:#9a9a9a;fill-opacity:1;stroke:none;stroke-width:1.58473;stroke-linecap:round"
           d="m 9.7605865,47.784296 7.6972785,2.062479 c -0.410311,-1.931744 2.271687,-5.64883 8.04578,-11.15114 l 0.0036,-0.0021 c -7e-4,2.06e-4 -0.0014,3.66e-4 -0.0021,6.36e-4 5.29e-4,-5.04e-4 0.001,-10e-4 0.0016,-0.0015 l -0.0036,0.0021 c -7.652188,2.249356 -12.212278,2.713491 -13.680061,1.392279 z"
           sodipodi:nodetypes="ccccccccc" /><path
           id="path85"
           style="display:inline;fill:#9a9a9a;fill-opacity:1;stroke:none;stroke-width:1.58473;stroke-linecap:round"
           d="m 57.972695,19.949021 -7.697279,-2.062479 c 0.410311,1.931744 -2.271686,5.648829 -8.045779,11.15114 l -0.0036,0.0021 c 7e-4,-2.06e-4 0.0014,-3.66e-4 0.0021,-6.35e-4 -5.29e-4,5.03e-4 -10e-4,0.001 -0.0016,0.0015 l 0.0036,-0.0021 C 49.88234,26.789222 54.442429,26.325089 55.910213,27.6463 Z"
           sodipodi:nodetypes="ccccccccc" /></g></clipPath><radialGradient
       inkscape:collect="always"
       xlink:href="#linearGradient28"
       id="radialGradient112"
       gradientUnits="userSpaceOnUse"
       gradientTransform="translate(0,-3.2982818e-5)"
       cx="-56.205033"
       cy="33.866665"
       fx="-56.205033"
       fy="33.866665"
       r="30.771364" /><clipPath
       clipPathUnits="userSpaceOnUse"
       id="clipPath152"><g
         id="g160"
         transform="matrix(1.105482,0,0,1.105482,-93.644022,-3.572327)"><path
           id="path153"
           style="display:inline;fill:#9a9a9a;fill-opacity:1;stroke:none;stroke-width:1.52127;stroke-linecap:round"
           d="m 33.866637,6.0313925 c -2.64073,0.021438 -5.185364,2.2900503 -5.192528,5.6347985 l 5.192051,12.54342 v 0.0042 c 1.59e-4,-7.09e-4 3.18e-4,-0.0014 4.77e-4,-0.0021 1.59e-4,7.09e-4 3.18e-4,0.0014 4.77e-4,0.0021 v -0.0042 l 5.192051,-12.54342 C 39.052438,8.572772 36.745598,6.0548582 33.866637,6.0313925 Z"
           sodipodi:nodetypes="ccccccccc" /><path
           id="path154"
           style="display:inline;fill:#9a9a9a;fill-opacity:1;stroke:none;stroke-width:1.52127;stroke-linecap:round"
           d="m 33.866637,61.70194 c 2.64073,-0.02144 5.185364,-2.29005 5.192528,-5.634798 l -5.192051,-12.54342 v -0.0042 c -1.59e-4,7.09e-4 -3.18e-4,0.0014 -4.77e-4,0.0021 -1.59e-4,-7.09e-4 -3.18e-4,-0.0014 -4.77e-4,-0.0021 v 0.0042 l -5.192051,12.54342 c 0.0067,3.093419 2.313567,5.611333 5.192528,5.634798 z"
           sodipodi:nodetypes="ccccccccc" /><path
           id="path155"
           style="display:inline;fill:#9a9a9a;fill-opacity:1;stroke:none;stroke-width:1.52127;stroke-linecap:round"
           d="m 61.701911,33.866666 c -0.02144,-2.64073 -2.290051,-5.185364 -5.634799,-5.192528 l -12.54342,5.192051 h -0.0042 c 7.09e-4,1.59e-4 0.0014,3.18e-4 0.0021,4.77e-4 -7.09e-4,1.59e-4 -0.0014,3.18e-4 -0.0021,4.77e-4 h 0.0042 l 12.54342,5.192051 c 3.093419,-0.0067 5.611333,-2.313567 5.634799,-5.192528 z"
           sodipodi:nodetypes="ccccccccc" /><path
           id="path156"
           style="display:inline;fill:#9a9a9a;fill-opacity:1;stroke:none;stroke-width:1.52127;stroke-linecap:round"
           d="m 6.0313632,33.866666 c 0.02144,2.64073 2.29005,5.185364 5.6347978,5.192528 l 12.54342,-5.192051 h 0.0042 c -7.09e-4,-1.59e-4 -0.0014,-3.18e-4 -0.0021,-4.77e-4 7.09e-4,-1.59e-4 0.0014,-3.18e-4 0.0021,-4.77e-4 h -0.0042 l -12.54342,-5.192051 c -3.0934188,0.0067 -5.6113328,2.313567 -5.6347978,5.192528 z"
           sodipodi:nodetypes="ccccccccc" /><path
           id="path157"
           style="display:inline;fill:#9a9a9a;fill-opacity:1;stroke:none;stroke-width:1.52127;stroke-linecap:round"
           d="m 53.549148,14.184155 c -1.882437,-1.852119 -5.285916,-2.047296 -7.656076,0.312733 l -5.198203,12.540872 -0.003,0.003 c 6.14e-4,-3.88e-4 0.0012,-7.65e-4 0.0018,-0.0011 -3.89e-4,6.14e-4 -7.65e-4,0.0012 -0.0011,0.0018 l 0.003,-0.003 12.540871,-5.198203 c 2.182621,-2.192134 2.331873,-5.60375 0.312733,-7.656076 z"
           sodipodi:nodetypes="ccccccccc" /><path
           id="path158"
           style="display:inline;fill:#9a9a9a;fill-opacity:1;stroke:none;stroke-width:1.52127;stroke-linecap:round"
           d="m 14.184126,53.549177 c 1.882439,1.852118 5.285916,2.047296 7.656076,-0.312732 l 5.198203,-12.540872 0.003,-0.003 c -6.14e-4,3.89e-4 -0.0012,7.65e-4 -0.0018,0.0011 3.89e-4,-6.14e-4 7.65e-4,-0.0012 0.0011,-0.0018 l -0.003,0.003 -12.540872,5.198203 c -2.18264,2.192116 -2.331872,5.603751 -0.312732,7.656076 z"
           sodipodi:nodetypes="ccccccccc" /><path
           id="path159"
           style="display:inline;fill:#9a9a9a;fill-opacity:1;stroke:none;stroke-width:1.52127;stroke-linecap:round"
           d="m 53.549148,53.549177 c 1.852118,-1.882438 2.047296,-5.285917 -0.312733,-7.656076 l -12.540871,-5.198203 -0.003,-0.003 c 3.89e-4,6.14e-4 7.65e-4,0.0012 0.0011,0.0018 -6.13e-4,-3.89e-4 -0.0012,-7.65e-4 -0.0018,-0.0011 l 0.003,0.003 5.198203,12.540872 c 2.192115,2.18264 5.60375,2.331873 7.656076,0.312733 z"
           sodipodi:nodetypes="ccccccccc" /><path
           id="path160"
           style="display:inline;fill:#9a9a9a;fill-opacity:1;stroke:none;stroke-width:1.52127;stroke-linecap:round"
           d="m 14.184126,14.184155 c -1.852117,1.882439 -2.047296,5.285916 0.312732,7.656076 l 12.540872,5.198203 0.003,0.003 c -3.89e-4,-6.13e-4 -7.65e-4,-0.0012 -0.0011,-0.0018 6.14e-4,3.89e-4 0.0012,7.65e-4 0.0018,0.0011 l -0.003,-0.003 -5.198203,-12.540872 C 19.648112,12.314222 16.236476,12.16499 14.184151,14.18413 Z"
           sodipodi:nodetypes="ccccccccc" /></g></clipPath><clipPath
       clipPathUnits="userSpaceOnUse"
       id="clipPath177"><g
         id="g189"
         transform="matrix(1.105482,1.1115778e-8,-1.1115778e-8,1.105482,-93.644022,-3.5723266)"><path
           id="path178"
           style="display:inline;fill:#9a9a9a;fill-opacity:1;stroke:none;stroke-width:1.62935;stroke-linecap:round"
           d="m 19.943712,9.7514522 c -2.609678,1.5314838 -3.999108,4.9562848 -2.331899,7.8603958 l 11.43111,7.900991 0.0021,0.0036 c -1.99e-4,-7.06e-4 -3.87e-4,-0.0014 -5.79e-4,-0.0021 5.13e-4,5.24e-4 0.001,9.9e-4 0.0015,0.0016 l -0.0021,-0.0036 -1.126903,-13.850126 C 26.36178,8.9839248 22.812268,8.1224171 19.943712,9.7514522 Z"
           sodipodi:nodetypes="ccccccccc" /><path
           id="path179"
           style="display:inline;fill:#9a9a9a;fill-opacity:1;stroke:none;stroke-width:1.62935;stroke-linecap:round"
           d="m 47.789655,57.981883 c 2.609678,-1.531484 3.999108,-4.956285 2.331899,-7.860396 l -11.43111,-7.900991 -0.0021,-0.0036 c 1.99e-4,7.06e-4 3.87e-4,0.0014 5.79e-4,0.0021 -5.13e-4,-5.24e-4 -0.001,-9.9e-4 -0.0015,-0.0016 l 0.0021,0.0036 1.126903,13.850126 c 1.555161,2.678288 5.104673,3.539796 7.973229,1.910761 z"
           sodipodi:nodetypes="ccccccccc" /><path
           id="path180"
           style="display:inline;fill:#9a9a9a;fill-opacity:1;stroke:none;stroke-width:1.62935;stroke-linecap:round"
           d="m 9.7514682,47.789639 c 1.5314838,2.609678 4.9562848,3.999108 7.8603958,2.331899 l 7.900991,-11.43111 0.0036,-0.0021 c -7.06e-4,1.99e-4 -0.0014,3.87e-4 -0.0021,5.79e-4 5.24e-4,-5.13e-4 9.9e-4,-10e-4 0.0016,-0.0015 l -0.0036,0.0021 -13.850126,1.126903 c -2.6782882,1.555161 -3.5397959,5.104673 -1.9107608,7.973229 z"
           sodipodi:nodetypes="ccccccccc" /><path
           id="path181"
           style="display:inline;fill:#9a9a9a;fill-opacity:1;stroke:none;stroke-width:1.62935;stroke-linecap:round"
           d="m 57.981899,19.943696 c -1.531484,-2.609678 -4.956285,-3.999108 -7.860396,-2.331899 l -7.900991,11.43111 -0.0036,0.0021 c 7.06e-4,-1.99e-4 0.0014,-3.87e-4 0.0021,-5.79e-4 -5.24e-4,5.13e-4 -9.9e-4,0.001 -0.0016,0.0015 l 0.0036,-0.0021 13.850126,-1.126903 c 2.678288,-1.555161 3.539796,-5.104673 1.910761,-7.973229 z"
           sodipodi:nodetypes="ccccccccc" /><path
           id="path182"
           style="display:inline;fill:#9a9a9a;fill-opacity:1;stroke:none;stroke-width:1.62935;stroke-linecap:round"
           d="m 9.7514288,19.943764 c -1.4943055,2.631143 -0.9851867,6.291823 1.9107142,7.973252 l 13.850127,1.126904 0.0036,0.0021 c -5.26e-4,-5.12e-4 -0.001,-10e-4 -0.0016,-0.0015 7.07e-4,1.97e-4 0.0014,3.57e-4 0.0021,6.35e-4 l -0.0036,-0.0021 -7.90099,-11.43111 C 14.925875,16.070032 11.421154,17.0987 9.7514288,19.943764 Z"
           sodipodi:nodetypes="ccccccccc" /><path
           id="path183"
           style="display:inline;fill:#9a9a9a;fill-opacity:1;stroke:none;stroke-width:1.62935;stroke-linecap:round"
           d="m 57.981938,47.789571 c 1.494306,-2.631143 0.985187,-6.291823 -1.910714,-7.973252 l -13.850127,-1.126904 -0.0036,-0.0021 c 5.26e-4,5.12e-4 10e-4,0.001 0.0016,0.0015 -7.07e-4,-1.97e-4 -0.0014,-3.57e-4 -0.0021,-6.35e-4 l 0.0036,0.0021 7.90099,11.431109 c 2.685953,1.541885 6.190674,0.513217 7.860399,-2.331847 z"
           sodipodi:nodetypes="ccccccccc" /><path
           id="path184"
           style="display:inline;fill:#9a9a9a;fill-opacity:1;stroke:none;stroke-width:1.62935;stroke-linecap:round"
           d="m 19.94378,57.981922 c 2.631143,1.494306 6.291823,0.985187 7.973252,-1.910714 l 1.126904,-13.850127 0.0021,-0.0036 c -5.12e-4,5.26e-4 -0.001,10e-4 -0.0015,0.0016 1.97e-4,-7.07e-4 3.57e-4,-0.0014 6.35e-4,-0.0021 l -0.0021,0.0036 -11.43111,7.90099 c -1.541885,2.685953 -0.513217,6.190674 2.331847,7.860399 z"
           sodipodi:nodetypes="ccccccccc" /><path
           id="path185"
           style="display:inline;fill:#9a9a9a;fill-opacity:1;stroke:none;stroke-width:1.62935;stroke-linecap:round"
           d="M 47.789587,9.7514128 C 45.158444,8.2571074 41.497764,8.7662262 39.816335,11.662127 l -1.126904,13.850127 -0.0021,0.0036 c 5.12e-4,-5.26e-4 10e-4,-0.001 0.0015,-0.0016 -1.97e-4,7.07e-4 -3.57e-4,0.0014 -6.35e-4,0.0021 l 0.0021,-0.0036 11.43111,-7.90099 c 1.541885,-2.685953 0.513217,-6.190674 -2.331847,-7.8603992 z"
           sodipodi:nodetypes="ccccccccc" /><path
           id="path186"
           style="display:inline;fill:#9a9a9a;fill-opacity:1;stroke:none;stroke-width:1.62935;stroke-linecap:round"
           d="m 6.0208088,33.866707 c 0.021465,3.025789 2.2927148,5.941471 5.6413532,5.949681 l 12.558014,-5.949136 0.0042,1.9e-5 c -7.11e-4,-1.81e-4 -0.0014,-3.66e-4 -0.0021,-4.99e-4 7.1e-4,-1.83e-4 0.0014,-3.91e-4 0.0021,-5e-4 l -0.0042,-1.9e-5 -12.558013,-5.949137 c -3.0970184,0.0076 -5.6178618,2.65083 -5.6413542,5.949591 z"
           sodipodi:nodetypes="ccccccccc" /><path
           id="path187"
           style="display:inline;fill:#9a9a9a;fill-opacity:1;stroke:none;stroke-width:1.62935;stroke-linecap:round"
           d="m 61.712558,33.866628 c -0.02146,-3.02579 -2.292714,-5.941472 -5.641352,-5.949682 l -12.558014,5.949136 -0.0042,-1.8e-5 c 7.12e-4,1.8e-4 0.0014,3.66e-4 0.0021,4.99e-4 -7.11e-4,1.83e-4 -0.0014,3.91e-4 -0.0021,5e-4 l 0.0042,1.9e-5 12.558013,5.949135 c 3.097046,-0.0077 5.617889,-2.650878 5.641382,-5.949638 z"
           sodipodi:nodetypes="ccccccccc" /><path
           id="path188"
           style="display:inline;fill:#9a9a9a;fill-opacity:1;stroke:none;stroke-width:1.62935;stroke-linecap:round"
           d="m 33.866723,61.712542 c 3.02579,-0.02146 5.941472,-2.292714 5.949682,-5.641353 l -5.949136,-12.558014 1.8e-5,-0.0042 c -1.8e-4,7.11e-4 -3.66e-4,0.0014 -4.99e-4,0.0021 -1.83e-4,-7.1e-4 -3.91e-4,-0.0014 -5e-4,-0.0021 l -1.9e-5,0.0042 -5.949136,12.558013 c 0.0077,3.097046 2.650878,5.617889 5.949638,5.641382 z"
           sodipodi:nodetypes="ccccccccc" /><path
           id="path189"
           style="display:inline;fill:#9a9a9a;fill-opacity:1;stroke:none;stroke-width:1.62935;stroke-linecap:round"
           d="m 33.866644,6.0207924 c -3.025789,0.021465 -5.941471,2.2927148 -5.949681,5.6413526 l 5.949136,12.558014 -1.9e-5,0.0042 c 1.81e-4,-7.12e-4 3.66e-4,-0.0014 4.99e-4,-0.0021 1.83e-4,7.11e-4 3.91e-4,0.0014 5e-4,0.0021 l 1.9e-5,-0.0042 5.949137,-12.558013 C 39.80857,8.5651006 37.165357,6.0442572 33.866596,6.0207648 Z"
           sodipodi:nodetypes="ccccccccc" /></g></clipPath></defs><g
     inkscape:groupmode="layer"
     id="layer1"
     inkscape:label="Layer 5"><circle
       style="fill:#000000;fill-opacity:1;stroke:none;stroke-width:6.11801;stroke-linecap:round;stroke-dasharray:none;stroke-opacity:1"
       id="path193"
       cx="33.866676"
       cy="33.866661"
       r="27.387173" /></g><g
     inkscape:groupmode="layer"
     id="layer4"
     inkscape:label="Layer 4" /><g
     inkscape:groupmode="layer"
     id="layer3"
     inkscape:label="Layer 3"
     style="display:inline"><circle
       style="display:inline;opacity:1;fill:url(#radialGradient112);stroke:none;stroke-width:1.63721;stroke-linecap:round"
       id="circle111"
       cx="-56.205063"
       cy="33.866665"
       r="30.771395"
       clip-path="url(#clipPath177)"
       transform="matrix(1.0409853,0.27893118,-0.27893118,1.0409853,101.82167,14.289311)"
       inkscape:label="path2" /></g><g
     inkscape:groupmode="layer"
     id="layer2"
     inkscape:label="Layer 2"><circle
       style="opacity:1;fill:#eeb9bc;fill-opacity:1;stroke:none;stroke-width:1.44251;stroke-linecap:round"
       id="circle112"
       cx="41.478043"
       cy="23.947374"
       r="8.7165375"
       transform="rotate(15)" /></g></svg>
